<?xml version="1.0" standalone="no"?>
<!DOCTYPE svg PUBLIC "-//W3C//DTD SVG 20010904//EN"
 "http://www.w3.org/TR/2001/REC-SVG-20010904/DTD/svg10.dtd">
<svg version="1.0" xmlns="http://www.w3.org/2000/svg"
 width="512.000000pt" height="512.000000pt" viewBox="0 0 512.000000 512.000000"
 preserveAspectRatio="xMidYMid meet">
<metadata>
Created by potrace 1.11, written by Peter Selinger 2001-2013
</metadata>
<g transform="translate(0.000000,512.000000) scale(0.100000,-0.100000)"
fill="#000000" stroke="none">
<path d="M945 5111 c-40 -18 -68 -59 -72 -108 -5 -44 -2 -52 28 -83 18 -19 33
-37 32 -40 -1 -3 14 -6 32 -7 79 -4 287 -92 395 -168 102 -71 179 -140 246
-221 113 -136 189 -288 234 -464 24 -93 29 -75 -60 -190 -129 -167 -223 -431
-229 -643 l-2 -74 1011 0 1011 0 -1 61 c-4 150 -50 331 -120 476 -50 100 -85
155 -164 247 l-28 33 22 88 c106 414 400 720 810 842 124 36 151 58 158 130 4
42 1 51 -27 83 -49 55 -92 58 -225 13 -330 -111 -610 -324 -782 -596 -48 -77
-115 -220 -142 -305 l-25 -82 -81 40 c-44 22 -94 44 -111 48 -16 4 -55 15 -85
24 -74 21 -265 27 -360 10 -92 -16 -184 -46 -271 -89 l-66 -32 -22 70 c-28 92
-107 257 -162 338 -181 268 -425 455 -741 566 -96 34 -172 46 -203 33z"/>
<path d="M285 3893 c-56 -14 -114 -91 -115 -153 0 -14 21 -93 46 -175 25 -83
47 -154 49 -160 1 -5 5 -17 8 -25 7 -18 77 -248 83 -269 2 -9 22 -74 45 -146
22 -71 48 -153 56 -180 15 -51 15 -51 76 -68 34 -9 152 -42 262 -72 110 -30
250 -69 310 -86 l110 -30 0 -237 0 -237 -35 -17 c-19 -9 -42 -15 -50 -12 -8 3
-11 2 -7 -2 4 -4 -53 -34 -126 -66 -72 -32 -150 -67 -172 -77 -22 -10 -109
-49 -192 -86 -86 -39 -155 -76 -157 -84 -3 -9 -7 -34 -11 -55 -3 -21 -7 -48
-10 -60 -3 -12 -7 -34 -10 -51 -8 -51 -65 -369 -69 -391 -2 -12 -7 -39 -10
-60 -6 -39 -30 -173 -41 -229 -7 -37 -11 -58 -20 -110 -3 -22 -11 -67 -17
-100 -6 -33 -12 -71 -14 -85 -2 -14 -10 -59 -18 -100 -21 -110 -12 -163 36
-207 56 -53 142 -63 198 -23 60 43 70 69 104 265 9 50 23 128 32 175 8 47 17
94 19 105 1 11 5 34 8 50 3 17 9 50 12 75 4 25 9 54 12 65 2 11 6 36 9 55 2
19 6 42 9 50 2 8 7 31 10 50 6 40 23 135 29 166 2 12 7 39 10 60 4 22 11 62
17 90 l10 52 249 111 c137 61 251 111 254 111 4 0 20 -49 31 -100 9 -37 55
-171 80 -230 117 -279 253 -484 431 -648 76 -71 213 -172 232 -172 6 0 12 -3
14 -8 10 -22 224 -102 328 -122 64 -13 261 -16 310 -5 14 3 37 7 52 10 15 3
65 17 110 31 440 139 813 601 968 1202 6 23 13 42 17 42 3 0 42 -16 87 -36 44
-20 101 -45 126 -56 25 -11 77 -34 115 -52 39 -18 93 -43 121 -55 50 -23 52
-25 63 -80 16 -77 61 -328 67 -371 3 -19 7 -46 10 -60 2 -14 7 -38 9 -55 3
-16 10 -52 15 -80 5 -27 12 -67 15 -89 3 -21 7 -41 9 -45 2 -3 7 -26 10 -51 3
-25 8 -56 11 -70 3 -14 8 -41 11 -60 20 -123 45 -243 53 -257 41 -77 144 -108
222 -67 33 16 79 70 80 92 1 9 3 28 4 42 2 14 -1 48 -7 75 -5 28 -13 73 -18
100 -14 85 -49 289 -55 315 -4 22 -10 51 -31 170 -2 14 -13 77 -24 140 -20
115 -26 146 -35 197 -3 16 -8 44 -11 63 -22 133 -52 292 -55 295 -2 2 -137 62
-299 135 -162 72 -323 145 -357 161 -34 16 -66 29 -70 29 -5 0 -9 108 -9 239
1 231 2 240 21 245 32 8 137 37 170 46 73 21 389 109 486 135 l66 18 36 116
c87 287 210 684 237 769 35 109 36 132 11 188 -26 56 -71 86 -134 90 -101 5
-147 -41 -192 -191 -15 -49 -38 -122 -50 -160 -12 -39 -55 -178 -96 -308 -67
-220 -75 -238 -98 -244 -14 -3 -134 -36 -266 -73 l-240 -67 -10 41 -11 41
-1277 3 c-1272 2 -1277 2 -1278 -18 -1 -11 -3 -24 -4 -30 -1 -5 -3 -16 -4 -24
-1 -12 -9 -12 -53 0 -29 8 -78 22 -108 30 -30 8 -104 29 -165 46 -60 17 -134
37 -162 45 -29 8 -53 16 -53 19 0 3 -39 129 -86 282 -47 152 -101 329 -121
392 -19 63 -44 130 -55 149 -33 53 -113 81 -183 64z"/>
</g>
</svg>
